<mxfile host="app.diagrams.net" modified="2023-09-20T08:34:15.419Z" agent="Mozilla/5.0 (Windows NT 10.0; Win64; x64) AppleWebKit/537.36 (KHTML, like Gecko) Chrome/117.0.0.0 Safari/537.36" etag="ELZmBORwI84y94I4zDAu" version="21.7.5" type="device">
  <diagram name="Страница — 1" id="SKCMALDtpzGlToM-7zmt">
    <mxGraphModel dx="1750" dy="2129" grid="1" gridSize="10" guides="1" tooltips="1" connect="1" arrows="1" fold="1" page="1" pageScale="1" pageWidth="827" pageHeight="1169" math="0" shadow="0">
      <root>
        <mxCell id="0" />
        <mxCell id="1" parent="0" />
        <mxCell id="ZVI3LUTYR06dFy_uMU0m-1" value="" style="group;rounded=0;labelBackgroundColor=none;fontColor=#5C5C5C;" vertex="1" connectable="0" parent="1">
          <mxGeometry x="110" y="-20" width="1500" height="945" as="geometry" />
        </mxCell>
        <mxCell id="GQdHuWOkYM_ToP7brwyJ-9" value="пользователь" style="shape=umlActor;verticalLabelPosition=bottom;verticalAlign=top;html=1;outlineConnect=0;labelBackgroundColor=none;rounded=0;fillColor=#21C0A5;strokeColor=#006658;fontColor=#5C5C5C;" parent="ZVI3LUTYR06dFy_uMU0m-1" vertex="1">
          <mxGeometry x="710" y="116.72" width="30" height="60" as="geometry" />
        </mxCell>
        <mxCell id="GQdHuWOkYM_ToP7brwyJ-15" value="вход" style="ellipse;whiteSpace=wrap;html=1;labelBackgroundColor=none;rounded=0;fillColor=#21C0A5;strokeColor=#006658;fontColor=#5C5C5C;" parent="ZVI3LUTYR06dFy_uMU0m-1" vertex="1">
          <mxGeometry x="400" y="96.72" width="120" height="80" as="geometry" />
        </mxCell>
        <mxCell id="GQdHuWOkYM_ToP7brwyJ-16" value="регистрация" style="ellipse;whiteSpace=wrap;html=1;labelBackgroundColor=none;rounded=0;fillColor=#21C0A5;strokeColor=#006658;fontColor=#5C5C5C;" parent="ZVI3LUTYR06dFy_uMU0m-1" vertex="1">
          <mxGeometry x="530" y="170" width="120" height="80" as="geometry" />
        </mxCell>
        <mxCell id="GQdHuWOkYM_ToP7brwyJ-28" value="Переход на сайт" style="ellipse;whiteSpace=wrap;html=1;labelBackgroundColor=none;rounded=0;fillColor=#21C0A5;strokeColor=#006658;fontColor=#5C5C5C;" parent="ZVI3LUTYR06dFy_uMU0m-1" vertex="1">
          <mxGeometry x="737" y="15" width="120" height="80" as="geometry" />
        </mxCell>
        <mxCell id="GQdHuWOkYM_ToP7brwyJ-35" value="редактирование профиля" style="ellipse;whiteSpace=wrap;html=1;labelBackgroundColor=none;rounded=0;fillColor=#21C0A5;strokeColor=#006658;fontColor=#5C5C5C;" parent="ZVI3LUTYR06dFy_uMU0m-1" vertex="1">
          <mxGeometry x="490" y="277.5" width="120" height="80" as="geometry" />
        </mxCell>
        <mxCell id="GQdHuWOkYM_ToP7brwyJ-37" value="Номер телефона для подтверждения" style="ellipse;whiteSpace=wrap;html=1;labelBackgroundColor=none;rounded=0;fillColor=#21C0A5;strokeColor=#006658;fontColor=#5C5C5C;" parent="ZVI3LUTYR06dFy_uMU0m-1" vertex="1">
          <mxGeometry x="194" y="190" width="120" height="80" as="geometry" />
        </mxCell>
        <mxCell id="GQdHuWOkYM_ToP7brwyJ-42" value="Просмотр Прямого эфира" style="ellipse;whiteSpace=wrap;html=1;labelBackgroundColor=none;rounded=0;fillColor=#21C0A5;strokeColor=#006658;fontColor=#5C5C5C;" parent="ZVI3LUTYR06dFy_uMU0m-1" vertex="1">
          <mxGeometry x="990" y="72.5" width="120" height="80" as="geometry" />
        </mxCell>
        <mxCell id="GQdHuWOkYM_ToP7brwyJ-47" value="авторизованый&amp;nbsp;&lt;br&gt;пользователь" style="shape=umlActor;verticalLabelPosition=bottom;verticalAlign=top;html=1;labelBackgroundColor=none;rounded=0;fillColor=#21C0A5;strokeColor=#006658;fontColor=#5C5C5C;" parent="ZVI3LUTYR06dFy_uMU0m-1" vertex="1">
          <mxGeometry x="710" y="356.72" width="30" height="70" as="geometry" />
        </mxCell>
        <mxCell id="GQdHuWOkYM_ToP7brwyJ-49" value="" style="html=1;verticalAlign=bottom;endArrow=open;dashed=1;endSize=8;curved=0;rounded=0;exitX=0;exitY=0.5;exitDx=0;exitDy=0;entryX=1;entryY=0.5;entryDx=0;entryDy=0;labelBackgroundColor=none;fontColor=default;strokeColor=#006658;" parent="ZVI3LUTYR06dFy_uMU0m-1" source="GQdHuWOkYM_ToP7brwyJ-16" target="GQdHuWOkYM_ToP7brwyJ-37" edge="1">
          <mxGeometry relative="1" as="geometry">
            <mxPoint x="60" y="265" as="sourcePoint" />
            <mxPoint x="20" y="265" as="targetPoint" />
          </mxGeometry>
        </mxCell>
        <mxCell id="GQdHuWOkYM_ToP7brwyJ-51" value="" style="html=1;verticalAlign=bottom;endArrow=open;dashed=1;endSize=8;curved=0;rounded=0;exitX=0.5;exitY=1;exitDx=0;exitDy=0;entryX=0.5;entryY=0;entryDx=0;entryDy=0;labelBackgroundColor=none;fontColor=default;strokeColor=#006658;" parent="ZVI3LUTYR06dFy_uMU0m-1" source="GQdHuWOkYM_ToP7brwyJ-15" target="GQdHuWOkYM_ToP7brwyJ-37" edge="1">
          <mxGeometry relative="1" as="geometry">
            <mxPoint x="140" y="185" as="sourcePoint" />
            <mxPoint x="20" y="175" as="targetPoint" />
          </mxGeometry>
        </mxCell>
        <mxCell id="GQdHuWOkYM_ToP7brwyJ-64" value="Заполнение профиля" style="ellipse;whiteSpace=wrap;html=1;labelBackgroundColor=none;rounded=0;fillColor=#21C0A5;strokeColor=#006658;fontColor=#5C5C5C;" parent="ZVI3LUTYR06dFy_uMU0m-1" vertex="1">
          <mxGeometry x="390" y="410" width="140" height="70" as="geometry" />
        </mxCell>
        <mxCell id="GQdHuWOkYM_ToP7brwyJ-66" value="" style="html=1;verticalAlign=bottom;endArrow=open;dashed=1;endSize=8;curved=0;rounded=0;exitX=0;exitY=1;exitDx=0;exitDy=0;entryX=0.5;entryY=0;entryDx=0;entryDy=0;labelBackgroundColor=none;fontColor=default;strokeColor=#006658;" parent="ZVI3LUTYR06dFy_uMU0m-1" source="GQdHuWOkYM_ToP7brwyJ-35" target="GQdHuWOkYM_ToP7brwyJ-64" edge="1">
          <mxGeometry relative="1" as="geometry">
            <mxPoint x="213.5" y="370" as="sourcePoint" />
            <mxPoint x="82" y="383" as="targetPoint" />
          </mxGeometry>
        </mxCell>
        <mxCell id="GQdHuWOkYM_ToP7brwyJ-70" value="Работаю с моей рекламой" style="ellipse;whiteSpace=wrap;html=1;labelBackgroundColor=none;rounded=0;fillColor=#21C0A5;strokeColor=#006658;fontColor=#5C5C5C;" parent="ZVI3LUTYR06dFy_uMU0m-1" vertex="1">
          <mxGeometry x="860" y="270" width="140" height="70" as="geometry" />
        </mxCell>
        <mxCell id="GQdHuWOkYM_ToP7brwyJ-76" value="Связь с технической поддержкой" style="ellipse;whiteSpace=wrap;html=1;labelBackgroundColor=none;rounded=0;fillColor=#21C0A5;strokeColor=#006658;fontColor=#5C5C5C;" parent="ZVI3LUTYR06dFy_uMU0m-1" vertex="1">
          <mxGeometry x="940" y="356.72" width="140" height="70" as="geometry" />
        </mxCell>
        <mxCell id="GQdHuWOkYM_ToP7brwyJ-81" value="менеджер" style="shape=umlActor;verticalLabelPosition=bottom;verticalAlign=top;html=1;labelBackgroundColor=none;rounded=0;fillColor=#21C0A5;strokeColor=#006658;fontColor=#5C5C5C;" parent="ZVI3LUTYR06dFy_uMU0m-1" vertex="1">
          <mxGeometry x="710" y="575.72" width="30" height="60" as="geometry" />
        </mxCell>
        <mxCell id="GQdHuWOkYM_ToP7brwyJ-83" value="Редактирование рассписания" style="ellipse;whiteSpace=wrap;html=1;labelBackgroundColor=none;rounded=0;fillColor=#21C0A5;strokeColor=#006658;fontColor=#5C5C5C;" parent="ZVI3LUTYR06dFy_uMU0m-1" vertex="1">
          <mxGeometry x="790" y="457.5" width="140" height="70" as="geometry" />
        </mxCell>
        <mxCell id="GQdHuWOkYM_ToP7brwyJ-88" value="Общение с пользователем" style="ellipse;whiteSpace=wrap;html=1;labelBackgroundColor=none;rounded=0;fillColor=#21C0A5;strokeColor=#006658;fontColor=#5C5C5C;" parent="ZVI3LUTYR06dFy_uMU0m-1" vertex="1">
          <mxGeometry x="540" y="500" width="140" height="70" as="geometry" />
        </mxCell>
        <mxCell id="GQdHuWOkYM_ToP7brwyJ-90" value="Заказ обратной связи" style="ellipse;whiteSpace=wrap;html=1;labelBackgroundColor=none;rounded=0;fillColor=#21C0A5;strokeColor=#006658;fontColor=#5C5C5C;" parent="ZVI3LUTYR06dFy_uMU0m-1" vertex="1">
          <mxGeometry x="270" y="520" width="140" height="70" as="geometry" />
        </mxCell>
        <mxCell id="GQdHuWOkYM_ToP7brwyJ-91" value="" style="html=1;verticalAlign=bottom;endArrow=open;dashed=1;endSize=8;curved=0;rounded=0;exitX=0;exitY=0.5;exitDx=0;exitDy=0;entryX=1;entryY=0.5;entryDx=0;entryDy=0;labelBackgroundColor=none;fontColor=default;strokeColor=#006658;" parent="ZVI3LUTYR06dFy_uMU0m-1" source="GQdHuWOkYM_ToP7brwyJ-88" target="GQdHuWOkYM_ToP7brwyJ-90" edge="1">
          <mxGeometry relative="1" as="geometry">
            <mxPoint x="-20" y="570" as="sourcePoint" />
            <mxPoint x="30" y="320" as="targetPoint" />
          </mxGeometry>
        </mxCell>
        <mxCell id="GQdHuWOkYM_ToP7brwyJ-95" value="Админ&lt;br&gt;" style="shape=umlActor;verticalLabelPosition=bottom;verticalAlign=top;html=1;labelBackgroundColor=none;rounded=0;fillColor=#21C0A5;strokeColor=#006658;fontColor=#5C5C5C;" parent="ZVI3LUTYR06dFy_uMU0m-1" vertex="1">
          <mxGeometry x="710" y="751.72" width="30" height="60" as="geometry" />
        </mxCell>
        <mxCell id="GQdHuWOkYM_ToP7brwyJ-97" value="История сообщений" style="ellipse;whiteSpace=wrap;html=1;labelBackgroundColor=none;rounded=0;fillColor=#21C0A5;strokeColor=#006658;fontColor=#5C5C5C;" parent="ZVI3LUTYR06dFy_uMU0m-1" vertex="1">
          <mxGeometry x="820" y="630" width="140" height="70" as="geometry" />
        </mxCell>
        <mxCell id="GQdHuWOkYM_ToP7brwyJ-102" value="Работа с сотрудниками" style="ellipse;whiteSpace=wrap;html=1;labelBackgroundColor=none;rounded=0;fillColor=#21C0A5;strokeColor=#006658;fontColor=#5C5C5C;" parent="ZVI3LUTYR06dFy_uMU0m-1" vertex="1">
          <mxGeometry x="490" y="727.5" width="140" height="70" as="geometry" />
        </mxCell>
        <mxCell id="GQdHuWOkYM_ToP7brwyJ-103" value="Добавить сотрудника" style="ellipse;whiteSpace=wrap;html=1;labelBackgroundColor=none;rounded=0;fillColor=#21C0A5;strokeColor=#006658;fontColor=#5C5C5C;" parent="ZVI3LUTYR06dFy_uMU0m-1" vertex="1">
          <mxGeometry x="270" y="642.5" width="140" height="70" as="geometry" />
        </mxCell>
        <mxCell id="GQdHuWOkYM_ToP7brwyJ-104" value="Уволить сотрудника" style="ellipse;whiteSpace=wrap;html=1;labelBackgroundColor=none;rounded=0;fillColor=#21C0A5;strokeColor=#006658;fontColor=#5C5C5C;" parent="ZVI3LUTYR06dFy_uMU0m-1" vertex="1">
          <mxGeometry x="460" y="850" width="140" height="70" as="geometry" />
        </mxCell>
        <mxCell id="GQdHuWOkYM_ToP7brwyJ-105" value="" style="html=1;verticalAlign=bottom;endArrow=open;dashed=1;endSize=8;curved=0;rounded=0;exitX=0;exitY=0.5;exitDx=0;exitDy=0;entryX=1;entryY=0.5;entryDx=0;entryDy=0;labelBackgroundColor=none;fontColor=default;strokeColor=#006658;" parent="ZVI3LUTYR06dFy_uMU0m-1" source="GQdHuWOkYM_ToP7brwyJ-102" target="GQdHuWOkYM_ToP7brwyJ-103" edge="1">
          <mxGeometry relative="1" as="geometry">
            <mxPoint x="220.0000000000016" y="680" as="sourcePoint" />
            <mxPoint x="150" y="630" as="targetPoint" />
          </mxGeometry>
        </mxCell>
        <mxCell id="GQdHuWOkYM_ToP7brwyJ-106" value="" style="html=1;verticalAlign=bottom;endArrow=open;dashed=1;endSize=8;curved=0;rounded=0;exitX=0.5;exitY=1;exitDx=0;exitDy=0;entryX=0.5;entryY=0;entryDx=0;entryDy=0;labelBackgroundColor=none;fontColor=default;strokeColor=#006658;" parent="ZVI3LUTYR06dFy_uMU0m-1" source="GQdHuWOkYM_ToP7brwyJ-102" target="GQdHuWOkYM_ToP7brwyJ-104" edge="1">
          <mxGeometry relative="1" as="geometry">
            <mxPoint x="204" y="599" as="sourcePoint" />
            <mxPoint x="160" y="640" as="targetPoint" />
          </mxGeometry>
        </mxCell>
        <mxCell id="GQdHuWOkYM_ToP7brwyJ-107" value="Просмотреть всех сотрудников" style="ellipse;whiteSpace=wrap;html=1;labelBackgroundColor=none;rounded=0;fillColor=#21C0A5;strokeColor=#006658;fontColor=#5C5C5C;" parent="ZVI3LUTYR06dFy_uMU0m-1" vertex="1">
          <mxGeometry x="260" y="751.72" width="140" height="70" as="geometry" />
        </mxCell>
        <mxCell id="GQdHuWOkYM_ToP7brwyJ-108" value="" style="html=1;verticalAlign=bottom;endArrow=open;dashed=1;endSize=8;curved=0;rounded=0;exitX=0;exitY=1;exitDx=0;exitDy=0;entryX=1;entryY=0;entryDx=0;entryDy=0;labelBackgroundColor=none;fontColor=default;strokeColor=#006658;" parent="ZVI3LUTYR06dFy_uMU0m-1" source="GQdHuWOkYM_ToP7brwyJ-102" target="GQdHuWOkYM_ToP7brwyJ-107" edge="1">
          <mxGeometry x="-0.0191" y="-10" relative="1" as="geometry">
            <mxPoint x="214" y="609" as="sourcePoint" />
            <mxPoint x="170" y="650" as="targetPoint" />
            <mxPoint as="offset" />
          </mxGeometry>
        </mxCell>
        <mxCell id="GQdHuWOkYM_ToP7brwyJ-110" value="Работа с рекламой" style="ellipse;whiteSpace=wrap;html=1;labelBackgroundColor=none;rounded=0;fillColor=#21C0A5;strokeColor=#006658;fontColor=#5C5C5C;" parent="ZVI3LUTYR06dFy_uMU0m-1" vertex="1">
          <mxGeometry x="910" y="537.5" width="140" height="70" as="geometry" />
        </mxCell>
        <mxCell id="GQdHuWOkYM_ToP7brwyJ-117" value="Помощь с заказом" style="ellipse;whiteSpace=wrap;html=1;labelBackgroundColor=none;rounded=0;fillColor=#21C0A5;strokeColor=#006658;fontColor=#5C5C5C;" parent="ZVI3LUTYR06dFy_uMU0m-1" vertex="1">
          <mxGeometry x="444" y="590" width="140" height="70" as="geometry" />
        </mxCell>
        <mxCell id="GQdHuWOkYM_ToP7brwyJ-119" value="" style="html=1;verticalAlign=bottom;endArrow=open;dashed=1;endSize=8;curved=0;rounded=0;exitX=0;exitY=0.5;exitDx=0;exitDy=0;entryX=1;entryY=0.5;entryDx=0;entryDy=0;labelBackgroundColor=none;fontColor=default;strokeColor=#006658;" parent="ZVI3LUTYR06dFy_uMU0m-1" source="GQdHuWOkYM_ToP7brwyJ-88" target="GQdHuWOkYM_ToP7brwyJ-117" edge="1">
          <mxGeometry relative="1" as="geometry">
            <mxPoint x="194" y="589" as="sourcePoint" />
            <mxPoint x="160" y="490" as="targetPoint" />
          </mxGeometry>
        </mxCell>
        <mxCell id="V9EetfRAWFubTz8M2Sf6-10" value="удаление профиля" style="ellipse;whiteSpace=wrap;html=1;direction=east;labelBackgroundColor=none;rounded=0;fillColor=#21C0A5;strokeColor=#006658;fontColor=#5C5C5C;" parent="ZVI3LUTYR06dFy_uMU0m-1" vertex="1">
          <mxGeometry x="160" y="310" width="120" height="80" as="geometry" />
        </mxCell>
        <mxCell id="V9EetfRAWFubTz8M2Sf6-14" value="" style="endArrow=none;html=1;rounded=0;exitX=1;exitY=0.5;exitDx=0;exitDy=0;entryX=0.5;entryY=0.5;entryDx=0;entryDy=0;entryPerimeter=0;labelBackgroundColor=none;fontColor=default;strokeColor=#006658;" parent="ZVI3LUTYR06dFy_uMU0m-1" source="GQdHuWOkYM_ToP7brwyJ-35" target="GQdHuWOkYM_ToP7brwyJ-47" edge="1">
          <mxGeometry width="50" height="50" relative="1" as="geometry">
            <mxPoint x="590" y="395" as="sourcePoint" />
            <mxPoint x="400" y="360" as="targetPoint" />
          </mxGeometry>
        </mxCell>
        <mxCell id="V9EetfRAWFubTz8M2Sf6-16" value="Работа с профилем" style="ellipse;whiteSpace=wrap;html=1;labelBackgroundColor=none;rounded=0;fillColor=#21C0A5;strokeColor=#006658;fontColor=#5C5C5C;" parent="ZVI3LUTYR06dFy_uMU0m-1" vertex="1">
          <mxGeometry x="800" y="760" width="140" height="70" as="geometry" />
        </mxCell>
        <mxCell id="V9EetfRAWFubTz8M2Sf6-26" value="" style="endArrow=none;html=1;rounded=0;exitX=1;exitY=0.5;exitDx=0;exitDy=0;entryX=0.5;entryY=0.5;entryDx=0;entryDy=0;entryPerimeter=0;labelBackgroundColor=none;fontColor=default;strokeColor=#006658;" parent="ZVI3LUTYR06dFy_uMU0m-1" source="GQdHuWOkYM_ToP7brwyJ-102" target="GQdHuWOkYM_ToP7brwyJ-95" edge="1">
          <mxGeometry width="50" height="50" relative="1" as="geometry">
            <mxPoint x="570" y="575" as="sourcePoint" />
            <mxPoint x="620" y="525" as="targetPoint" />
          </mxGeometry>
        </mxCell>
        <mxCell id="V9EetfRAWFubTz8M2Sf6-29" value="" style="endArrow=none;html=1;rounded=0;exitX=0.5;exitY=0.5;exitDx=0;exitDy=0;exitPerimeter=0;entryX=1;entryY=0.5;entryDx=0;entryDy=0;labelBackgroundColor=none;fontColor=default;strokeColor=#006658;" parent="ZVI3LUTYR06dFy_uMU0m-1" source="GQdHuWOkYM_ToP7brwyJ-81" target="GQdHuWOkYM_ToP7brwyJ-88" edge="1">
          <mxGeometry width="50" height="50" relative="1" as="geometry">
            <mxPoint x="570" y="515" as="sourcePoint" />
            <mxPoint x="620" y="465" as="targetPoint" />
          </mxGeometry>
        </mxCell>
        <mxCell id="V9EetfRAWFubTz8M2Sf6-35" value="" style="endArrow=block;dashed=0;endFill=0;endSize=12;html=1;rounded=0;exitX=0.5;exitY=0.5;exitDx=0;exitDy=0;exitPerimeter=0;labelBackgroundColor=none;fontColor=default;entryX=0.467;entryY=0.783;entryDx=0;entryDy=0;entryPerimeter=0;strokeColor=#006658;" parent="ZVI3LUTYR06dFy_uMU0m-1" source="GQdHuWOkYM_ToP7brwyJ-47" target="GQdHuWOkYM_ToP7brwyJ-9" edge="1">
          <mxGeometry width="160" relative="1" as="geometry">
            <mxPoint x="1570" y="461.72" as="sourcePoint" />
            <mxPoint x="725" y="181.72" as="targetPoint" />
            <Array as="points" />
          </mxGeometry>
        </mxCell>
        <mxCell id="V9EetfRAWFubTz8M2Sf6-36" value="" style="endArrow=block;dashed=0;endFill=0;endSize=12;html=1;rounded=0;exitX=0.5;exitY=0.5;exitDx=0;exitDy=0;exitPerimeter=0;entryX=0.5;entryY=0.75;entryDx=0;entryDy=0;entryPerimeter=0;labelBackgroundColor=none;fontColor=default;strokeColor=#006658;" parent="ZVI3LUTYR06dFy_uMU0m-1" source="GQdHuWOkYM_ToP7brwyJ-81" target="GQdHuWOkYM_ToP7brwyJ-47" edge="1">
          <mxGeometry width="160" relative="1" as="geometry">
            <mxPoint x="670" y="531.72" as="sourcePoint" />
            <mxPoint x="725" y="411.72" as="targetPoint" />
          </mxGeometry>
        </mxCell>
        <mxCell id="V9EetfRAWFubTz8M2Sf6-37" value="" style="endArrow=block;dashed=0;endFill=0;endSize=12;html=1;rounded=0;exitX=0.5;exitY=0.5;exitDx=0;exitDy=0;exitPerimeter=0;entryX=0.5;entryY=0.767;entryDx=0;entryDy=0;entryPerimeter=0;labelBackgroundColor=none;fontColor=default;strokeColor=#006658;" parent="ZVI3LUTYR06dFy_uMU0m-1" source="GQdHuWOkYM_ToP7brwyJ-95" target="GQdHuWOkYM_ToP7brwyJ-81" edge="1">
          <mxGeometry width="160" relative="1" as="geometry">
            <mxPoint x="670" y="641.72" as="sourcePoint" />
            <mxPoint x="725" y="631.72" as="targetPoint" />
          </mxGeometry>
        </mxCell>
        <mxCell id="TTsXXdfR0gRK0MO65nMC-1" value="" style="endArrow=none;html=1;rounded=0;exitX=0.5;exitY=0.5;exitDx=0;exitDy=0;exitPerimeter=0;entryX=0;entryY=1;entryDx=0;entryDy=0;labelBackgroundColor=none;fontColor=default;strokeColor=#006658;" parent="ZVI3LUTYR06dFy_uMU0m-1" source="GQdHuWOkYM_ToP7brwyJ-9" edge="1">
          <mxGeometry width="50" height="50" relative="1" as="geometry">
            <mxPoint x="910" y="261.72" as="sourcePoint" />
            <mxPoint x="777.5735931288073" y="95.0042712474619" as="targetPoint" />
          </mxGeometry>
        </mxCell>
        <mxCell id="TTsXXdfR0gRK0MO65nMC-2" value="" style="endArrow=none;html=1;rounded=0;exitX=0.5;exitY=0.5;exitDx=0;exitDy=0;exitPerimeter=0;entryX=0;entryY=0.5;entryDx=0;entryDy=0;labelBackgroundColor=none;fontColor=default;strokeColor=#006658;" parent="ZVI3LUTYR06dFy_uMU0m-1" source="GQdHuWOkYM_ToP7brwyJ-9" target="GQdHuWOkYM_ToP7brwyJ-42" edge="1">
          <mxGeometry width="50" height="50" relative="1" as="geometry">
            <mxPoint x="590" y="235" as="sourcePoint" />
            <mxPoint x="640" y="185" as="targetPoint" />
          </mxGeometry>
        </mxCell>
        <mxCell id="TTsXXdfR0gRK0MO65nMC-3" value="" style="endArrow=none;html=1;rounded=0;exitX=0.5;exitY=0;exitDx=0;exitDy=0;entryX=0.5;entryY=0.5;entryDx=0;entryDy=0;entryPerimeter=0;labelBackgroundColor=none;fontColor=default;strokeColor=#006658;" parent="ZVI3LUTYR06dFy_uMU0m-1" source="GQdHuWOkYM_ToP7brwyJ-16" target="GQdHuWOkYM_ToP7brwyJ-9" edge="1">
          <mxGeometry width="50" height="50" relative="1" as="geometry">
            <mxPoint x="300" y="235" as="sourcePoint" />
            <mxPoint x="350" y="185" as="targetPoint" />
          </mxGeometry>
        </mxCell>
        <mxCell id="TTsXXdfR0gRK0MO65nMC-4" value="" style="endArrow=none;html=1;rounded=0;exitX=1;exitY=0.5;exitDx=0;exitDy=0;entryX=0.5;entryY=0.5;entryDx=0;entryDy=0;entryPerimeter=0;labelBackgroundColor=none;fontColor=default;strokeColor=#006658;" parent="ZVI3LUTYR06dFy_uMU0m-1" source="GQdHuWOkYM_ToP7brwyJ-15" target="GQdHuWOkYM_ToP7brwyJ-9" edge="1">
          <mxGeometry width="50" height="50" relative="1" as="geometry">
            <mxPoint x="300" y="235" as="sourcePoint" />
            <mxPoint x="400" y="125" as="targetPoint" />
          </mxGeometry>
        </mxCell>
        <mxCell id="TTsXXdfR0gRK0MO65nMC-7" value="" style="endArrow=none;html=1;rounded=0;exitX=0;exitY=0.5;exitDx=0;exitDy=0;entryX=0.5;entryY=0.5;entryDx=0;entryDy=0;entryPerimeter=0;labelBackgroundColor=none;fontColor=default;strokeColor=#006658;" parent="ZVI3LUTYR06dFy_uMU0m-1" source="GQdHuWOkYM_ToP7brwyJ-110" target="GQdHuWOkYM_ToP7brwyJ-81" edge="1">
          <mxGeometry width="50" height="50" relative="1" as="geometry">
            <mxPoint x="300" y="635" as="sourcePoint" />
            <mxPoint x="350" y="585" as="targetPoint" />
          </mxGeometry>
        </mxCell>
        <mxCell id="TTsXXdfR0gRK0MO65nMC-8" value="" style="endArrow=none;html=1;rounded=0;exitX=0;exitY=0.5;exitDx=0;exitDy=0;entryX=0.5;entryY=0.5;entryDx=0;entryDy=0;entryPerimeter=0;labelBackgroundColor=none;fontColor=default;strokeColor=#006658;" parent="ZVI3LUTYR06dFy_uMU0m-1" source="GQdHuWOkYM_ToP7brwyJ-83" target="GQdHuWOkYM_ToP7brwyJ-81" edge="1">
          <mxGeometry width="50" height="50" relative="1" as="geometry">
            <mxPoint x="300" y="635" as="sourcePoint" />
            <mxPoint x="350" y="585" as="targetPoint" />
          </mxGeometry>
        </mxCell>
        <mxCell id="TTsXXdfR0gRK0MO65nMC-9" value="" style="endArrow=none;html=1;rounded=0;entryX=0;entryY=1;entryDx=0;entryDy=0;exitX=0.5;exitY=0.5;exitDx=0;exitDy=0;exitPerimeter=0;labelBackgroundColor=none;fontColor=default;strokeColor=#006658;" parent="ZVI3LUTYR06dFy_uMU0m-1" source="GQdHuWOkYM_ToP7brwyJ-95" target="GQdHuWOkYM_ToP7brwyJ-97" edge="1">
          <mxGeometry width="50" height="50" relative="1" as="geometry">
            <mxPoint x="300" y="835" as="sourcePoint" />
            <mxPoint x="350" y="785" as="targetPoint" />
          </mxGeometry>
        </mxCell>
        <mxCell id="TTsXXdfR0gRK0MO65nMC-10" value="" style="endArrow=none;html=1;rounded=0;exitX=0.5;exitY=0.5;exitDx=0;exitDy=0;exitPerimeter=0;entryX=0.5;entryY=0;entryDx=0;entryDy=0;labelBackgroundColor=none;fontColor=default;strokeColor=#006658;" parent="ZVI3LUTYR06dFy_uMU0m-1" source="GQdHuWOkYM_ToP7brwyJ-95" target="V9EetfRAWFubTz8M2Sf6-16" edge="1">
          <mxGeometry width="50" height="50" relative="1" as="geometry">
            <mxPoint x="300" y="835" as="sourcePoint" />
            <mxPoint x="350" y="785" as="targetPoint" />
          </mxGeometry>
        </mxCell>
        <mxCell id="TTsXXdfR0gRK0MO65nMC-12" value="" style="endArrow=none;html=1;rounded=0;entryX=0.5;entryY=1;entryDx=0;entryDy=0;exitX=0.5;exitY=0.5;exitDx=0;exitDy=0;exitPerimeter=0;labelBackgroundColor=none;fontColor=default;strokeColor=#006658;" parent="ZVI3LUTYR06dFy_uMU0m-1" source="GQdHuWOkYM_ToP7brwyJ-47" target="GQdHuWOkYM_ToP7brwyJ-70" edge="1">
          <mxGeometry width="50" height="50" relative="1" as="geometry">
            <mxPoint x="300" y="335" as="sourcePoint" />
            <mxPoint x="350" y="285" as="targetPoint" />
          </mxGeometry>
        </mxCell>
        <mxCell id="TTsXXdfR0gRK0MO65nMC-13" value="" style="endArrow=none;html=1;rounded=0;entryX=0;entryY=0.5;entryDx=0;entryDy=0;exitX=0.5;exitY=0.5;exitDx=0;exitDy=0;exitPerimeter=0;labelBackgroundColor=none;fontColor=default;strokeColor=#006658;" parent="ZVI3LUTYR06dFy_uMU0m-1" source="GQdHuWOkYM_ToP7brwyJ-47" target="GQdHuWOkYM_ToP7brwyJ-76" edge="1">
          <mxGeometry width="50" height="50" relative="1" as="geometry">
            <mxPoint x="300" y="335" as="sourcePoint" />
            <mxPoint x="350" y="285" as="targetPoint" />
          </mxGeometry>
        </mxCell>
        <mxCell id="ZVI3LUTYR06dFy_uMU0m-8" value="" style="html=1;verticalAlign=bottom;endArrow=open;dashed=1;endSize=8;curved=0;rounded=0;labelBackgroundColor=none;fontColor=default;exitX=0.981;exitY=0.742;exitDx=0;exitDy=0;exitPerimeter=0;strokeColor=#006658;" edge="1" parent="ZVI3LUTYR06dFy_uMU0m-1" source="GQdHuWOkYM_ToP7brwyJ-37">
          <mxGeometry relative="1" as="geometry">
            <mxPoint x="200" y="390" as="sourcePoint" />
            <mxPoint x="490" y="290" as="targetPoint" />
            <Array as="points" />
          </mxGeometry>
        </mxCell>
        <mxCell id="ZVI3LUTYR06dFy_uMU0m-10" value="" style="html=1;verticalAlign=bottom;endArrow=open;dashed=1;endSize=8;curved=0;rounded=0;exitX=0.052;exitY=0.249;exitDx=0;exitDy=0;entryX=1;entryY=0.5;entryDx=0;entryDy=0;labelBackgroundColor=none;fontColor=default;exitPerimeter=0;strokeColor=#006658;" edge="1" parent="ZVI3LUTYR06dFy_uMU0m-1" source="GQdHuWOkYM_ToP7brwyJ-35" target="V9EetfRAWFubTz8M2Sf6-10">
          <mxGeometry relative="1" as="geometry">
            <mxPoint x="420" y="227" as="sourcePoint" />
            <mxPoint x="324" y="240" as="targetPoint" />
            <Array as="points">
              <mxPoint x="340" y="330" />
            </Array>
          </mxGeometry>
        </mxCell>
        <mxCell id="ZVI3LUTYR06dFy_uMU0m-11" value="Просмотр рассписания&lt;br&gt;&amp;nbsp;телепередач" style="ellipse;whiteSpace=wrap;html=1;labelBackgroundColor=none;rounded=0;fillColor=#21C0A5;strokeColor=#006658;fontColor=#5C5C5C;" vertex="1" parent="ZVI3LUTYR06dFy_uMU0m-1">
          <mxGeometry x="850" y="152.5" width="120" height="80" as="geometry" />
        </mxCell>
        <mxCell id="GQdHuWOkYM_ToP7brwyJ-75" value="" style="html=1;verticalAlign=bottom;endArrow=open;dashed=1;endSize=8;curved=0;rounded=0;exitX=1;exitY=0.5;exitDx=0;exitDy=0;entryX=0.786;entryY=0.179;entryDx=0;entryDy=0;labelBackgroundColor=none;fontColor=default;entryPerimeter=0;strokeColor=#006658;" parent="ZVI3LUTYR06dFy_uMU0m-1" source="GQdHuWOkYM_ToP7brwyJ-70" target="GQdHuWOkYM_ToP7brwyJ-76" edge="1">
          <mxGeometry x="-0.0015" relative="1" as="geometry">
            <mxPoint x="820" y="295" as="sourcePoint" />
            <mxPoint x="1450.0000000000005" y="277.5" as="targetPoint" />
            <mxPoint as="offset" />
          </mxGeometry>
        </mxCell>
        <mxCell id="ZVI3LUTYR06dFy_uMU0m-68" value="Новости канала" style="ellipse;whiteSpace=wrap;html=1;labelBackgroundColor=none;rounded=0;fillColor=#21C0A5;strokeColor=#006658;fontColor=#5C5C5C;" vertex="1" parent="ZVI3LUTYR06dFy_uMU0m-1">
          <mxGeometry x="740" y="210" width="120" height="80" as="geometry" />
        </mxCell>
        <mxCell id="V9EetfRAWFubTz8M2Sf6-15" value="Просмотреть все профили" style="ellipse;whiteSpace=wrap;html=1;labelBackgroundColor=none;rounded=0;fillColor=#21C0A5;strokeColor=#006658;fontColor=#5C5C5C;" parent="ZVI3LUTYR06dFy_uMU0m-1" vertex="1">
          <mxGeometry x="980" y="700" width="140" height="70" as="geometry" />
        </mxCell>
        <mxCell id="V9EetfRAWFubTz8M2Sf6-22" value="" style="html=1;verticalAlign=bottom;endArrow=open;dashed=1;endSize=8;curved=0;rounded=0;exitX=1;exitY=0;exitDx=0;exitDy=0;entryX=0;entryY=0.5;entryDx=0;entryDy=0;labelBackgroundColor=none;fontColor=default;strokeColor=#006658;" parent="ZVI3LUTYR06dFy_uMU0m-1" source="V9EetfRAWFubTz8M2Sf6-16" target="V9EetfRAWFubTz8M2Sf6-15" edge="1">
          <mxGeometry relative="1" as="geometry">
            <mxPoint x="629" y="840" as="sourcePoint" />
            <mxPoint x="681" y="890" as="targetPoint" />
          </mxGeometry>
        </mxCell>
        <mxCell id="GQdHuWOkYM_ToP7brwyJ-109" value="Удалить заказ" style="ellipse;whiteSpace=wrap;html=1;labelBackgroundColor=none;rounded=0;fillColor=#21C0A5;strokeColor=#006658;fontColor=#5C5C5C;" parent="ZVI3LUTYR06dFy_uMU0m-1" vertex="1">
          <mxGeometry x="1110" y="560" width="140" height="70" as="geometry" />
        </mxCell>
        <mxCell id="GQdHuWOkYM_ToP7brwyJ-115" value="Изменить порядок" style="ellipse;whiteSpace=wrap;html=1;labelBackgroundColor=none;rounded=0;fillColor=#21C0A5;strokeColor=#006658;fontColor=#5C5C5C;" parent="ZVI3LUTYR06dFy_uMU0m-1" vertex="1">
          <mxGeometry x="1080" y="457.5" width="140" height="70" as="geometry" />
        </mxCell>
        <mxCell id="GQdHuWOkYM_ToP7brwyJ-112" value="" style="html=1;verticalAlign=bottom;endArrow=open;dashed=1;endSize=8;curved=0;rounded=0;entryX=0;entryY=0.5;entryDx=0;entryDy=0;labelBackgroundColor=none;fontColor=default;strokeColor=#006658;exitX=1;exitY=0.5;exitDx=0;exitDy=0;" parent="ZVI3LUTYR06dFy_uMU0m-1" source="GQdHuWOkYM_ToP7brwyJ-110" target="GQdHuWOkYM_ToP7brwyJ-109" edge="1">
          <mxGeometry relative="1" as="geometry">
            <mxPoint x="1200" y="570" as="sourcePoint" />
            <mxPoint x="720" y="645" as="targetPoint" />
          </mxGeometry>
        </mxCell>
        <mxCell id="GQdHuWOkYM_ToP7brwyJ-84" value="Отправить сообщение" style="ellipse;whiteSpace=wrap;html=1;labelBackgroundColor=none;rounded=0;fillColor=#21C0A5;strokeColor=#006658;fontColor=#5C5C5C;" parent="ZVI3LUTYR06dFy_uMU0m-1" vertex="1">
          <mxGeometry x="1170" y="247.50000000000003" width="140" height="70" as="geometry" />
        </mxCell>
        <mxCell id="GQdHuWOkYM_ToP7brwyJ-85" value="" style="html=1;verticalAlign=bottom;endArrow=open;dashed=1;endSize=8;curved=0;rounded=0;exitX=1;exitY=0.5;exitDx=0;exitDy=0;entryX=0;entryY=0.5;entryDx=0;entryDy=0;labelBackgroundColor=none;fontColor=default;strokeColor=#006658;" parent="ZVI3LUTYR06dFy_uMU0m-1" source="GQdHuWOkYM_ToP7brwyJ-76" target="GQdHuWOkYM_ToP7brwyJ-84" edge="1">
          <mxGeometry relative="1" as="geometry">
            <mxPoint x="630" y="300" as="sourcePoint" />
            <mxPoint x="670" y="235" as="targetPoint" />
          </mxGeometry>
        </mxCell>
        <mxCell id="GQdHuWOkYM_ToP7brwyJ-124" value="Редактировать сообщение" style="ellipse;whiteSpace=wrap;html=1;labelBackgroundColor=none;rounded=0;fillColor=#21C0A5;strokeColor=#006658;fontColor=#5C5C5C;" parent="ZVI3LUTYR06dFy_uMU0m-1" vertex="1">
          <mxGeometry x="1290" y="320" width="140" height="70" as="geometry" />
        </mxCell>
        <mxCell id="GQdHuWOkYM_ToP7brwyJ-125" value="" style="html=1;verticalAlign=bottom;endArrow=open;dashed=1;endSize=8;curved=0;rounded=0;exitX=1;exitY=0.5;exitDx=0;exitDy=0;entryX=0;entryY=0.5;entryDx=0;entryDy=0;labelBackgroundColor=none;fontColor=default;strokeColor=#006658;" parent="ZVI3LUTYR06dFy_uMU0m-1" source="GQdHuWOkYM_ToP7brwyJ-76" target="GQdHuWOkYM_ToP7brwyJ-124" edge="1">
          <mxGeometry relative="1" as="geometry">
            <mxPoint x="630" y="445" as="sourcePoint" />
            <mxPoint x="960" y="375" as="targetPoint" />
          </mxGeometry>
        </mxCell>
        <mxCell id="GQdHuWOkYM_ToP7brwyJ-20" value="Просмотреть мои заказы" style="ellipse;whiteSpace=wrap;html=1;labelBackgroundColor=none;rounded=0;fillColor=#21C0A5;strokeColor=#006658;fontColor=#5C5C5C;" parent="ZVI3LUTYR06dFy_uMU0m-1" vertex="1">
          <mxGeometry x="990" y="167.5" width="120" height="80" as="geometry" />
        </mxCell>
        <mxCell id="GQdHuWOkYM_ToP7brwyJ-114" value="" style="html=1;verticalAlign=bottom;endArrow=open;dashed=1;endSize=8;curved=0;rounded=0;exitX=1;exitY=0.5;exitDx=0;exitDy=0;entryX=0;entryY=1;entryDx=0;entryDy=0;labelBackgroundColor=none;fontColor=default;strokeColor=#006658;" parent="ZVI3LUTYR06dFy_uMU0m-1" source="GQdHuWOkYM_ToP7brwyJ-70" target="GQdHuWOkYM_ToP7brwyJ-20" edge="1">
          <mxGeometry relative="1" as="geometry">
            <mxPoint x="630" y="300" as="sourcePoint" />
            <mxPoint x="670" y="235" as="targetPoint" />
          </mxGeometry>
        </mxCell>
        <mxCell id="GQdHuWOkYM_ToP7brwyJ-53" value="Сделайте заказ" style="ellipse;whiteSpace=wrap;html=1;labelBackgroundColor=none;rounded=0;fillColor=#21C0A5;strokeColor=#006658;fontColor=#5C5C5C;" parent="ZVI3LUTYR06dFy_uMU0m-1" vertex="1">
          <mxGeometry x="1170" y="157.5" width="140" height="70" as="geometry" />
        </mxCell>
        <mxCell id="GQdHuWOkYM_ToP7brwyJ-71" value="" style="html=1;verticalAlign=bottom;endArrow=open;dashed=1;endSize=8;curved=0;rounded=0;exitX=1;exitY=0.5;exitDx=0;exitDy=0;entryX=0;entryY=0.5;entryDx=0;entryDy=0;labelBackgroundColor=none;fontColor=default;strokeColor=#006658;" parent="ZVI3LUTYR06dFy_uMU0m-1" source="GQdHuWOkYM_ToP7brwyJ-70" target="GQdHuWOkYM_ToP7brwyJ-53" edge="1">
          <mxGeometry relative="1" as="geometry">
            <mxPoint x="780" y="295" as="sourcePoint" />
            <mxPoint x="660" y="290" as="targetPoint" />
          </mxGeometry>
        </mxCell>
        <mxCell id="V9EetfRAWFubTz8M2Sf6-17" value="Удалить профиль" style="ellipse;whiteSpace=wrap;html=1;labelBackgroundColor=none;rounded=0;fillColor=#21C0A5;strokeColor=#006658;fontColor=#5C5C5C;" parent="ZVI3LUTYR06dFy_uMU0m-1" vertex="1">
          <mxGeometry x="1150" y="712.5" width="140" height="70" as="geometry" />
        </mxCell>
        <mxCell id="V9EetfRAWFubTz8M2Sf6-21" value="" style="html=1;verticalAlign=bottom;endArrow=open;dashed=1;endSize=8;curved=0;rounded=0;entryX=0;entryY=0.5;entryDx=0;entryDy=0;labelBackgroundColor=none;fontColor=default;strokeColor=#006658;" parent="ZVI3LUTYR06dFy_uMU0m-1" source="V9EetfRAWFubTz8M2Sf6-15" target="V9EetfRAWFubTz8M2Sf6-17" edge="1">
          <mxGeometry x="0.0054" relative="1" as="geometry">
            <mxPoint x="609" y="830" as="sourcePoint" />
            <mxPoint x="661" y="880" as="targetPoint" />
            <mxPoint as="offset" />
          </mxGeometry>
        </mxCell>
        <mxCell id="V9EetfRAWFubTz8M2Sf6-18" value="Редактировать профиль" style="ellipse;whiteSpace=wrap;html=1;labelBackgroundColor=none;rounded=0;fillColor=#21C0A5;strokeColor=#006658;fontColor=#5C5C5C;" parent="ZVI3LUTYR06dFy_uMU0m-1" vertex="1">
          <mxGeometry x="1061" y="797.5" width="140" height="70" as="geometry" />
        </mxCell>
        <mxCell id="V9EetfRAWFubTz8M2Sf6-20" value="" style="html=1;verticalAlign=bottom;endArrow=open;dashed=1;endSize=8;curved=0;rounded=0;exitX=0.64;exitY=0.96;exitDx=0;exitDy=0;entryX=0;entryY=0.5;entryDx=0;entryDy=0;labelBackgroundColor=none;fontColor=default;exitPerimeter=0;strokeColor=#006658;" parent="ZVI3LUTYR06dFy_uMU0m-1" source="V9EetfRAWFubTz8M2Sf6-15" target="V9EetfRAWFubTz8M2Sf6-18" edge="1">
          <mxGeometry relative="1" as="geometry">
            <mxPoint x="274" y="760" as="sourcePoint" />
            <mxPoint x="274" y="830" as="targetPoint" />
          </mxGeometry>
        </mxCell>
        <mxCell id="GQdHuWOkYM_ToP7brwyJ-68" value="Выберите тип оплаты" style="ellipse;whiteSpace=wrap;html=1;labelBackgroundColor=none;rounded=0;fillColor=#21C0A5;strokeColor=#006658;fontColor=#5C5C5C;" parent="ZVI3LUTYR06dFy_uMU0m-1" vertex="1">
          <mxGeometry x="1360" y="50" width="140" height="70" as="geometry" />
        </mxCell>
        <mxCell id="GQdHuWOkYM_ToP7brwyJ-69" value="" style="html=1;verticalAlign=bottom;endArrow=open;dashed=1;endSize=8;curved=0;rounded=0;entryX=0;entryY=0.5;entryDx=0;entryDy=0;exitX=1;exitY=0.5;exitDx=0;exitDy=0;labelBackgroundColor=none;fontColor=default;strokeColor=#006658;" parent="ZVI3LUTYR06dFy_uMU0m-1" source="GQdHuWOkYM_ToP7brwyJ-53" target="GQdHuWOkYM_ToP7brwyJ-68" edge="1">
          <mxGeometry relative="1" as="geometry">
            <mxPoint x="800" y="290" as="sourcePoint" />
            <mxPoint x="870" y="285" as="targetPoint" />
          </mxGeometry>
        </mxCell>
        <mxCell id="GQdHuWOkYM_ToP7brwyJ-56" value="Добавить продукт" style="ellipse;whiteSpace=wrap;html=1;labelBackgroundColor=none;rounded=0;fillColor=#21C0A5;strokeColor=#006658;fontColor=#5C5C5C;" parent="1" vertex="1">
          <mxGeometry x="1560" y="160" width="140" height="70" as="geometry" />
        </mxCell>
        <mxCell id="GQdHuWOkYM_ToP7brwyJ-58" value="" style="html=1;verticalAlign=bottom;endArrow=open;dashed=1;endSize=8;curved=0;rounded=0;exitX=1;exitY=0.5;exitDx=0;exitDy=0;entryX=0;entryY=0.5;entryDx=0;entryDy=0;labelBackgroundColor=none;fontColor=default;strokeColor=#006658;" parent="1" source="GQdHuWOkYM_ToP7brwyJ-53" target="GQdHuWOkYM_ToP7brwyJ-56" edge="1">
          <mxGeometry relative="1" as="geometry">
            <mxPoint x="980" y="265" as="sourcePoint" />
            <mxPoint x="307" y="255" as="targetPoint" />
          </mxGeometry>
        </mxCell>
        <mxCell id="GQdHuWOkYM_ToP7brwyJ-86" value="Удалить сообщение" style="ellipse;whiteSpace=wrap;html=1;labelBackgroundColor=none;rounded=0;fillColor=#21C0A5;strokeColor=#006658;fontColor=#5C5C5C;" parent="1" vertex="1">
          <mxGeometry x="1400" y="390" width="140" height="70" as="geometry" />
        </mxCell>
        <mxCell id="GQdHuWOkYM_ToP7brwyJ-122" value="" style="html=1;verticalAlign=bottom;endArrow=open;dashed=1;endSize=8;curved=0;rounded=0;entryX=0;entryY=0.5;entryDx=0;entryDy=0;labelBackgroundColor=none;fontColor=default;strokeColor=#006658;" parent="1" target="GQdHuWOkYM_ToP7brwyJ-115" edge="1">
          <mxGeometry relative="1" as="geometry">
            <mxPoint x="1140" y="530" as="sourcePoint" />
            <mxPoint x="1380" y="675" as="targetPoint" />
          </mxGeometry>
        </mxCell>
        <mxCell id="GQdHuWOkYM_ToP7brwyJ-87" value="" style="html=1;verticalAlign=bottom;endArrow=open;dashed=1;endSize=8;curved=0;rounded=0;exitX=1;exitY=0.5;exitDx=0;exitDy=0;entryX=0;entryY=0.5;entryDx=0;entryDy=0;labelBackgroundColor=none;fontColor=default;strokeColor=#006658;" parent="1" source="GQdHuWOkYM_ToP7brwyJ-76" target="GQdHuWOkYM_ToP7brwyJ-86" edge="1">
          <mxGeometry x="0.1418" y="13" relative="1" as="geometry">
            <mxPoint x="730" y="475" as="sourcePoint" />
            <mxPoint x="770" y="425" as="targetPoint" />
            <mxPoint as="offset" />
          </mxGeometry>
        </mxCell>
        <mxCell id="ZVI3LUTYR06dFy_uMU0m-12" value="" style="endArrow=none;html=1;rounded=0;labelBackgroundColor=none;fontColor=default;strokeColor=#006658;" edge="1" parent="1" target="ZVI3LUTYR06dFy_uMU0m-11">
          <mxGeometry width="50" height="50" relative="1" as="geometry">
            <mxPoint x="820" y="120" as="sourcePoint" />
            <mxPoint x="1090" y="93" as="targetPoint" />
          </mxGeometry>
        </mxCell>
        <mxCell id="ZVI3LUTYR06dFy_uMU0m-69" value="" style="endArrow=none;html=1;rounded=0;labelBackgroundColor=none;fontColor=default;strokeColor=#006658;" edge="1" parent="1" target="ZVI3LUTYR06dFy_uMU0m-68">
          <mxGeometry width="50" height="50" relative="1" as="geometry">
            <mxPoint x="830" y="130" as="sourcePoint" />
            <mxPoint x="964" y="167" as="targetPoint" />
          </mxGeometry>
        </mxCell>
      </root>
    </mxGraphModel>
  </diagram>
</mxfile>
